<svg width="507" height="513" viewBox="0 0 507 513" fill="none" xmlns="http://www.w3.org/2000/svg">
<path d="M251.975 169.997C238.593 146.698 225.33 117.832 195.902 112.296C192.71 111.695 189.47 111.387 186.221 111.378C177.63 111.444 169.17 113.487 161.495 117.347C153.82 121.208 147.136 126.783 141.962 133.642L141.695 133.997C141.044 134.885 140.452 135.803 139.86 136.721L140.067 136.425C139.682 136.987 139.297 137.55 138.971 138.142L127.958 156.911L61.6128 269.411C96.2546 291.145 143.997 289.631 178.861 269.486C196.184 259.476 210.63 245.164 220.8 227.934L234.301 205.109L253.337 172.454L251.975 169.997Z" fill="url(#paint0_linear_234_141)"/>
<path d="M304.727 30.0524C299.533 21.1838 292.113 13.8258 283.201 8.70685C274.288 3.58792 264.194 0.885713 253.916 0.867766C243.639 0.849819 233.535 3.51676 224.605 8.60453C215.675 13.6923 208.228 21.0244 203.004 29.8748L188.615 54.24L172.658 81.24L140.092 136.602C145.121 128.873 151.989 122.512 160.08 118.089C168.171 113.667 177.233 111.32 186.454 111.26C189.702 111.269 192.943 111.576 196.135 112.178C225.444 117.714 238.826 146.579 252.208 169.878C258.898 181.543 265.767 193.089 272.606 204.694L280.51 218.046L286.106 227.52C294.776 242.226 306.584 254.839 320.687 264.459C334.79 274.08 350.842 280.471 367.698 283.178C393.63 287.509 422.924 283.03 445.293 268.997L375.01 149.525L304.727 30.0524Z" fill="url(#paint1_linear_234_141)"/>
<path d="M23.0707 438.768C20.3201 445.145 14.041 449.274 7.09679 449.274H0.446045L42.2492 356.84C44.0822 352.787 48.1184 350.182 52.5667 350.182C57.0149 350.182 61.0512 352.787 62.8841 356.84L104.687 449.274H98.3493C91.3877 449.274 85.0963 445.124 82.3565 438.724L50.4095 364.1H55.2806L23.0707 438.768ZM20.2087 426.032L27.0283 412.115H77.5484L84.0896 426.032H20.2087Z" fill="white"/>
<path d="M118.77 449.274C116.144 449.274 114.015 447.145 114.015 444.519V364.239C114.015 354.631 121.804 346.842 131.412 346.842V446.955C131.412 448.236 130.373 449.274 129.092 449.274H118.77Z" fill="white"/>
<path d="M182.178 450.249C174.848 450.249 168.492 448.764 163.111 445.795C157.822 442.826 153.74 438.651 150.864 433.269C147.987 427.795 146.549 421.3 146.549 413.785C146.549 406.362 147.987 399.914 150.864 394.44C153.74 388.873 157.822 384.605 163.111 381.636C168.492 378.667 174.848 377.182 182.178 377.182C189.322 377.182 195.539 378.667 200.827 381.636C206.209 384.605 210.337 388.873 213.214 394.44C216.183 399.914 217.667 406.362 217.667 413.785C217.667 421.3 216.183 427.795 213.214 433.269C210.337 438.651 206.209 442.826 200.827 445.795C195.539 448.764 189.322 450.249 182.178 450.249ZM182.178 436.888C187.93 436.888 192.338 434.986 195.399 431.182C198.554 427.285 200.131 421.486 200.131 413.785C200.131 406.177 198.554 400.471 195.399 396.667C192.338 392.77 187.93 390.821 182.178 390.821C176.333 390.821 171.786 392.77 168.539 396.667C165.384 400.471 163.807 406.177 163.807 413.785C163.807 421.486 165.384 427.285 168.539 431.182C171.693 434.986 176.24 436.888 182.178 436.888Z" fill="white"/>
<path d="M259.765 449.274C255.161 449.274 250.997 446.539 249.169 442.313L221.84 379.131H228.322C235.421 379.131 241.809 383.445 244.46 390.031L262.201 434.104H258.304L276.423 389.926C279.101 383.396 285.46 379.131 292.518 379.131H298.108L270.396 442.328C268.546 446.548 264.374 449.274 259.765 449.274Z" fill="white"/>
<path d="M333.34 450.249C327.217 450.249 321.789 448.81 317.057 445.934C312.325 442.965 308.66 438.79 306.062 433.408C303.557 427.934 302.305 421.532 302.305 414.202C302.305 406.78 303.603 400.331 306.201 394.857C308.799 389.29 312.418 384.976 317.057 381.914C321.789 378.76 327.217 377.182 333.34 377.182C339.278 377.182 344.428 378.667 348.789 381.636C353.242 384.512 356.258 388.548 357.835 393.744L356.165 394.718V381.311C356.165 380.03 357.203 378.991 358.484 378.991H370.964C372.245 378.991 373.283 380.03 373.283 381.311V446.955C373.283 448.236 372.245 449.274 370.964 449.274H358.484C357.203 449.274 356.165 448.236 356.165 446.955V433.408L357.835 433.965C356.258 439.161 353.242 443.197 348.789 446.073C344.428 448.857 339.278 450.249 333.34 450.249ZM338.072 436.888C343.825 436.888 348.278 434.893 351.433 430.903C354.588 426.914 356.165 421.254 356.165 413.924C356.165 406.409 354.588 400.703 351.433 396.806C348.278 392.816 343.825 390.821 338.072 390.821C332.227 390.821 327.681 392.862 324.433 396.945C321.186 401.027 319.562 406.828 319.562 414.251C319.562 421.488 321.186 427.053 324.433 431.043C327.681 434.939 332.227 436.888 338.072 436.888Z" fill="white"/>
<path d="M385.782 392.074C384.501 392.074 383.463 391.035 383.463 389.754V381.311C383.463 380.03 384.501 378.991 385.782 378.991H430.689C431.97 378.991 433.008 380.03 433.008 381.311V389.754C433.008 391.035 431.97 392.074 430.689 392.074H385.782ZM431.544 435.165C432.286 434.994 433.008 435.548 433.008 436.31V446.933C433.008 447.918 432.388 448.806 431.44 449.077C428.359 449.957 425.306 450.249 421.735 450.249C413.849 450.249 407.725 448.022 403.364 443.568C399.096 439.115 396.962 432.713 396.962 424.362V373.425C396.962 363.817 404.751 356.028 414.359 356.028V423.527C414.359 426.682 414.869 429.187 415.89 431.043C416.911 432.805 418.256 434.058 419.926 434.8C423.648 436.367 427.698 436.051 431.544 435.165Z" fill="white"/>
<path d="M504.565 439.9C504.958 440.839 504.698 441.933 503.879 442.539C500.796 444.823 497.116 446.65 492.84 448.022C488.016 449.506 483.098 450.249 478.088 450.249C470.48 450.249 463.892 448.81 458.325 445.934C452.851 443.058 448.629 438.883 445.66 433.408C442.691 427.934 441.207 421.44 441.207 413.924C441.207 406.687 442.645 400.331 445.521 394.857C448.397 389.29 452.387 384.976 457.49 381.914C462.593 378.76 468.485 377.182 475.165 377.182C481.66 377.182 487.227 378.62 491.866 381.497C496.505 384.28 500.077 388.316 502.582 393.605C505.541 399.627 506.325 406.133 506.457 412.718C506.483 413.999 505.441 415.038 504.16 415.038H456.516L456.655 405.713H496.18L491.448 410.445C491.541 403.672 490.196 398.522 487.412 394.996C484.722 391.471 480.778 389.708 475.583 389.708C470.016 389.708 465.701 391.703 462.639 395.692C459.578 399.589 458.047 405.203 458.047 412.532C458.047 420.883 459.763 427.053 463.196 431.043C466.629 434.939 471.825 436.888 478.784 436.888C482.588 436.888 486.299 436.285 489.918 435.079C493.159 433.944 496.188 432.385 499.005 430.401C499.626 429.963 500.503 430.197 500.797 430.898L504.565 439.9Z" fill="white"/>
<path d="M12.483 512.868C10.0066 512.868 7.86348 512.344 6.05377 511.296C4.24406 510.249 2.85106 508.748 1.87477 506.796C0.922285 504.819 0.446045 502.498 0.446045 499.831C0.446045 497.164 0.922285 494.866 1.87477 492.937C2.85106 490.985 4.24406 489.485 6.05377 488.437C7.86348 487.389 10.0066 486.865 12.483 486.865C14.1975 486.865 15.7929 487.127 17.2692 487.651C18.6251 488.125 19.7962 488.802 20.7825 489.684C20.9711 489.853 21.0193 490.126 20.9122 490.355L20.1296 492.029C19.9651 492.381 19.5134 492.483 19.2019 492.251C18.2161 491.517 17.2385 490.972 16.2691 490.616C15.1261 490.163 13.876 489.937 12.5187 489.937C9.89941 489.937 7.86348 490.794 6.41095 492.509C4.95842 494.199 4.23215 496.64 4.23215 499.831C4.23215 503.022 4.94651 505.486 6.37523 507.224C7.82777 508.939 9.8756 509.796 12.5187 509.796C13.876 509.796 15.1261 509.582 16.2691 509.153C17.2387 508.777 18.2164 508.221 19.2024 507.483C19.5134 507.25 19.9651 507.352 20.1296 507.704L20.9122 509.378C21.0193 509.607 20.9711 509.88 20.7825 510.049C19.7962 510.931 18.6251 511.609 17.2692 512.082C15.7929 512.606 14.1975 512.868 12.483 512.868Z" fill="#ACACAC"/>
<path d="M27.7439 512.582C27.4151 512.582 27.1486 512.316 27.1486 511.987V487.746C27.1486 487.418 27.4151 487.151 27.7439 487.151H37.614C40.4238 487.151 42.5669 487.77 44.0432 489.008C45.5196 490.247 46.2577 492.021 46.2577 494.33C46.2577 496.545 45.4958 498.295 43.9718 499.581C43.018 500.398 41.8188 500.956 40.3741 501.254C40.0568 501.319 40.0207 501.042 40.3386 500.979C40.3557 500.976 40.3731 500.974 40.3905 500.974C41.2843 500.979 42.0614 501.241 42.7216 501.76C43.4122 502.26 43.9599 503.069 44.3647 504.188L47.2383 511.776C47.3858 512.166 47.098 512.582 46.6816 512.582H44.0627C43.8146 512.582 43.5926 512.428 43.5054 512.196L40.4714 504.117C40.1142 503.165 39.6023 502.534 38.9355 502.224C38.2688 501.891 37.4116 501.724 36.3638 501.724H31.3871C31.0584 501.724 30.7918 501.99 30.7918 502.319V511.987C30.7918 512.316 30.5253 512.582 30.1965 512.582H27.7439ZM30.7918 498.164C30.7918 498.493 31.0584 498.759 31.3871 498.759H37.1854C39.0665 498.759 40.4476 498.402 41.3286 497.688C42.2335 496.95 42.6859 495.854 42.6859 494.402C42.6859 492.949 42.2454 491.878 41.3644 491.187C40.4833 490.473 39.0903 490.116 37.1854 490.116H31.3871C31.0584 490.116 30.7918 490.382 30.7918 490.711V498.164Z" fill="#ACACAC"/>
<path d="M54.0776 512.582C53.7488 512.582 53.4823 512.316 53.4823 511.987V487.746C53.4823 487.418 53.7488 487.151 54.0776 487.151H69.3887C69.7175 487.151 69.984 487.418 69.984 487.746V489.52C69.984 489.849 69.7174 490.116 69.3887 490.116H57.7208C57.392 490.116 57.1255 490.382 57.1255 490.711V497.557C57.1255 497.886 57.392 498.152 57.7208 498.152H68.6743C69.0031 498.152 69.2696 498.419 69.2696 498.747V500.557C69.2696 500.886 69.0031 501.152 68.6743 501.152H57.7208C57.392 501.152 57.1255 501.419 57.1255 501.748V509.022C57.1255 509.351 57.392 509.618 57.7208 509.618H69.3887C69.7175 509.618 69.984 509.884 69.984 510.213V511.987C69.984 512.316 69.7174 512.582 69.3887 512.582H54.0776Z" fill="#ACACAC"/>
<path d="M76.8584 512.222C76.7644 512.441 76.5494 512.582 76.3116 512.582H73.8697C73.4388 512.582 73.1506 512.138 73.3259 511.745L84.1184 487.504C84.214 487.289 84.4271 487.151 84.6622 487.151H86.9965C87.2316 487.151 87.4447 487.289 87.5404 487.504L98.3329 511.745C98.5082 512.138 98.22 512.582 97.789 512.582H95.384C95.1456 512.582 94.9303 512.44 94.8366 512.221L85.5358 490.462C85.4295 490.213 85.6119 489.937 85.8821 489.937C86.1528 489.937 86.3352 490.214 86.2281 490.463L76.8584 512.222ZM78.7784 506.296C78.3435 506.296 78.0554 505.845 78.2383 505.45L79.0438 503.712C79.1413 503.502 79.3521 503.367 79.5839 503.367H91.9991C92.2332 503.367 92.4455 503.504 92.5418 503.717L93.3261 505.456C93.5039 505.85 93.2157 506.296 92.7835 506.296H78.7784Z" fill="#ACACAC"/>
<path d="M107.062 512.582C106.733 512.582 106.466 512.316 106.466 511.987V490.818C106.466 490.489 106.2 490.223 105.871 490.223H98.4535C98.1248 490.223 97.8582 489.956 97.8582 489.627V487.746C97.8582 487.418 98.1248 487.151 98.4535 487.151H118.194C118.522 487.151 118.789 487.418 118.789 487.746V489.627C118.789 489.956 118.522 490.223 118.194 490.223H110.776C110.447 490.223 110.181 490.489 110.181 490.818V511.987C110.181 512.316 109.914 512.582 109.586 512.582H107.062Z" fill="#ACACAC"/>
<path d="M124.219 512.582C123.89 512.582 123.623 512.316 123.623 511.987V487.746C123.623 487.418 123.89 487.151 124.219 487.151H126.707C127.036 487.151 127.302 487.418 127.302 487.746V511.987C127.302 512.316 127.036 512.582 126.707 512.582H124.219Z" fill="#ACACAC"/>
<path d="M143.211 512.582C142.975 512.582 142.762 512.443 142.666 512.227L131.976 487.986C131.803 487.593 132.091 487.151 132.521 487.151H135.108C135.346 487.151 135.562 487.293 135.655 487.512L144.785 508.849C144.905 509.128 144.7 509.439 144.396 509.439C144.091 509.439 143.886 509.127 144.007 508.848L153.205 487.511C153.299 487.292 153.514 487.151 153.751 487.151H156.233C156.663 487.151 156.951 487.593 156.777 487.986L146.087 512.227C145.992 512.443 145.778 512.582 145.542 512.582H143.211Z" fill="#ACACAC"/>
<path d="M161.992 512.582C161.663 512.582 161.397 512.316 161.397 511.987V487.746C161.397 487.418 161.663 487.151 161.992 487.151H177.303C177.632 487.151 177.898 487.418 177.898 487.746V489.52C177.898 489.849 177.632 490.116 177.303 490.116H165.635C165.306 490.116 165.04 490.382 165.04 490.711V497.557C165.04 497.886 165.306 498.152 165.635 498.152H176.589C176.917 498.152 177.184 498.419 177.184 498.747V500.557C177.184 500.886 176.917 501.152 176.589 501.152H165.635C165.306 501.152 165.04 501.419 165.04 501.748V509.022C165.04 509.351 165.306 509.618 165.635 509.618H177.303C177.632 509.618 177.898 509.884 177.898 510.213V511.987C177.898 512.316 177.632 512.582 177.303 512.582H161.992Z" fill="#ACACAC"/>
<path d="M202.337 512.582C202.085 512.582 201.86 512.423 201.776 512.185L193.23 487.944C193.094 487.557 193.381 487.151 193.792 487.151H196.274C196.529 487.151 196.756 487.314 196.838 487.556L203.937 508.581C204.032 508.862 203.823 509.153 203.526 509.153C203.228 509.153 203.018 508.859 203.116 508.577L210.419 487.557C210.503 487.314 210.733 487.153 210.989 487.157L212.854 487.181C213.106 487.184 213.329 487.346 213.41 487.584L220.59 508.612C220.681 508.878 220.484 509.153 220.203 509.153C219.923 509.153 219.726 508.878 219.816 508.612L226.995 487.554C227.078 487.313 227.304 487.151 227.559 487.151H229.865C230.275 487.151 230.562 487.556 230.426 487.943L221.915 512.184C221.831 512.423 221.606 512.582 221.353 512.582H219.126C218.873 512.582 218.648 512.422 218.564 512.183L211.588 492.146C211.522 491.956 211.662 491.759 211.863 491.759C212.064 491.759 212.204 491.957 212.138 492.147L205.092 512.184C205.008 512.423 204.783 512.582 204.53 512.582H202.337Z" fill="#ACACAC"/>
<path d="M236.772 512.582C236.444 512.582 236.177 512.316 236.177 511.987V487.746C236.177 487.418 236.444 487.151 236.772 487.151H252.083C252.412 487.151 252.679 487.418 252.679 487.746V489.52C252.679 489.849 252.412 490.116 252.083 490.116H240.416C240.087 490.116 239.82 490.382 239.82 490.711V497.557C239.82 497.886 240.087 498.152 240.416 498.152H251.369C251.698 498.152 251.964 498.419 251.964 498.747V500.557C251.964 500.886 251.698 501.152 251.369 501.152H240.416C240.087 501.152 239.82 501.419 239.82 501.748V509.022C239.82 509.351 240.087 509.618 240.416 509.618H252.083C252.412 509.618 252.679 509.884 252.679 510.213V511.987C252.679 512.316 252.412 512.582 252.083 512.582H236.772Z" fill="#ACACAC"/>
<path d="M259.304 512.582C258.975 512.582 258.709 512.316 258.709 511.987V487.746C258.709 487.418 258.975 487.151 259.304 487.151H269.353C271.948 487.151 273.984 487.734 275.46 488.901C276.937 490.068 277.675 491.699 277.675 493.795C277.675 495.247 277.27 496.485 276.461 497.509C275.702 498.475 274.654 499.175 273.317 499.607C273.247 499.63 273.174 499.577 273.174 499.503C273.174 499.432 273.239 499.38 273.308 499.395C274.863 499.74 276.081 500.444 276.961 501.51C277.865 502.605 278.318 503.986 278.318 505.653C278.318 507.867 277.556 509.582 276.032 510.796C274.532 511.987 272.424 512.582 269.71 512.582H259.304ZM262.352 509.022C262.352 509.351 262.618 509.618 262.947 509.618H269.353C271.21 509.618 272.567 509.284 273.425 508.617C274.306 507.951 274.746 506.891 274.746 505.439C274.746 504.01 274.306 502.938 273.425 502.224C272.543 501.51 271.186 501.152 269.353 501.152H262.947C262.618 501.152 262.352 501.419 262.352 501.748V509.022ZM262.352 497.593C262.352 497.921 262.618 498.188 262.947 498.188H268.745C270.555 498.188 271.901 497.843 272.782 497.152C273.663 496.461 274.103 495.438 274.103 494.08C274.103 492.747 273.663 491.759 272.782 491.116C271.901 490.449 270.555 490.116 268.745 490.116H262.947C262.618 490.116 262.352 490.382 262.352 490.711V497.593Z" fill="#ACACAC"/>
<path d="M303.862 512.868C302.553 512.868 301.314 512.761 300.148 512.546C298.981 512.308 297.897 511.951 296.897 511.475C296.044 511.069 295.268 510.593 294.571 510.048C294.36 509.882 294.297 509.592 294.411 509.349L295.188 507.686C295.35 507.34 295.791 507.234 296.103 507.455C297.193 508.229 298.291 508.807 299.398 509.189C300.731 509.641 302.231 509.868 303.898 509.868C305.803 509.868 307.279 509.51 308.327 508.796C309.375 508.058 309.899 507.046 309.899 505.76C309.899 504.974 309.649 504.331 309.149 503.831C308.649 503.331 307.934 502.926 307.006 502.617C306.101 502.307 305.029 502.01 303.791 501.724C302.457 501.438 301.231 501.117 300.112 500.76C298.993 500.379 298.028 499.914 297.219 499.367C296.409 498.819 295.778 498.14 295.326 497.331C294.897 496.521 294.683 495.533 294.683 494.366C294.683 492.913 295.076 491.616 295.862 490.473C296.647 489.33 297.743 488.449 299.148 487.83C300.576 487.187 302.255 486.865 304.184 486.865C305.374 486.865 306.517 486.984 307.613 487.222C308.708 487.461 309.72 487.818 310.649 488.294C311.437 488.678 312.149 489.14 312.783 489.678C312.983 489.849 313.034 490.134 312.918 490.369L312.095 492.037C311.923 492.385 311.47 492.477 311.161 492.242C310.201 491.508 309.209 490.954 308.184 490.58C306.946 490.104 305.624 489.866 304.22 489.866C302.386 489.866 300.945 490.247 299.898 491.009C298.85 491.771 298.326 492.83 298.326 494.187C298.326 495.021 298.552 495.699 299.005 496.223C299.457 496.723 300.112 497.14 300.969 497.473C301.85 497.807 302.898 498.116 304.112 498.402C305.47 498.712 306.72 499.057 307.863 499.438C309.006 499.795 310.006 500.236 310.863 500.76C311.72 501.26 312.387 501.903 312.863 502.688C313.34 503.45 313.578 504.403 313.578 505.546C313.578 507.022 313.185 508.308 312.399 509.403C311.613 510.499 310.494 511.356 309.041 511.975C307.589 512.57 305.863 512.868 303.862 512.868Z" fill="#ACACAC"/>
<path d="M330.501 512.868C328.073 512.868 325.977 512.344 324.215 511.296C322.453 510.249 321.096 508.748 320.143 506.796C319.191 504.843 318.714 502.534 318.714 499.867C318.714 497.176 319.191 494.866 320.143 492.937C321.096 490.985 322.453 489.485 324.215 488.437C325.977 487.389 328.073 486.865 330.501 486.865C332.93 486.865 335.026 487.389 336.788 488.437C338.574 489.485 339.943 490.985 340.895 492.937C341.848 494.866 342.324 497.164 342.324 499.831C342.324 502.522 341.836 504.843 340.86 506.796C339.907 508.748 338.55 510.249 336.788 511.296C335.026 512.344 332.93 512.868 330.501 512.868ZM330.501 509.868C333.025 509.868 335.002 509.01 336.431 507.296C337.859 505.558 338.574 503.069 338.574 499.831C338.574 496.592 337.859 494.128 336.431 492.437C335.002 490.723 333.025 489.866 330.501 489.866C327.977 489.866 326.001 490.723 324.572 492.437C323.143 494.152 322.429 496.616 322.429 499.831C322.429 503.045 323.143 505.522 324.572 507.26C326.001 508.998 327.977 509.868 330.501 509.868Z" fill="#ACACAC"/>
<path d="M349.431 512.582C349.102 512.582 348.835 512.316 348.835 511.987V487.746C348.835 487.418 349.102 487.151 349.431 487.151H351.919C352.248 487.151 352.514 487.418 352.514 487.746V508.915C352.514 509.244 352.781 509.51 353.109 509.51H364.277C364.606 509.51 364.873 509.777 364.873 510.106V511.987C364.873 512.316 364.606 512.582 364.277 512.582H349.431Z" fill="#ACACAC"/>
<path d="M379.14 512.868C375.758 512.868 373.187 511.999 371.425 510.261C369.686 508.498 368.817 505.903 368.817 502.474V487.746C368.817 487.418 369.084 487.151 369.413 487.151H371.829C372.158 487.151 372.425 487.418 372.425 487.746V502.724C372.425 505.081 372.984 506.867 374.104 508.082C375.246 509.272 376.925 509.868 379.14 509.868C381.307 509.868 382.95 509.26 384.069 508.046C385.212 506.832 385.783 505.058 385.783 502.724V487.746C385.783 487.418 386.05 487.151 386.379 487.151H388.867C389.196 487.151 389.462 487.418 389.462 487.746V502.474C389.462 505.879 388.581 508.463 386.819 510.225C385.057 511.987 382.497 512.868 379.14 512.868Z" fill="#ACACAC"/>
<path d="M403.322 512.582C402.993 512.582 402.726 512.316 402.726 511.987V490.818C402.726 490.489 402.46 490.223 402.131 490.223H394.713C394.385 490.223 394.118 489.956 394.118 489.627V487.746C394.118 487.418 394.385 487.151 394.713 487.151H414.454C414.782 487.151 415.049 487.418 415.049 487.746V489.627C415.049 489.956 414.782 490.223 414.454 490.223H407.036C406.707 490.223 406.441 490.489 406.441 490.818V511.987C406.441 512.316 406.174 512.582 405.846 512.582H403.322Z" fill="#ACACAC"/>
<path d="M420.479 512.582C420.15 512.582 419.883 512.316 419.883 511.987V487.746C419.883 487.418 420.15 487.151 420.479 487.151H422.967C423.296 487.151 423.562 487.418 423.562 487.746V511.987C423.562 512.316 423.296 512.582 422.967 512.582H420.479Z" fill="#ACACAC"/>
<path d="M441.869 512.868C439.44 512.868 437.345 512.344 435.583 511.296C433.82 510.249 432.463 508.748 431.511 506.796C430.558 504.843 430.082 502.534 430.082 499.867C430.082 497.176 430.558 494.866 431.511 492.937C432.463 490.985 433.82 489.485 435.583 488.437C437.345 487.389 439.44 486.865 441.869 486.865C444.298 486.865 446.393 487.389 448.155 488.437C449.941 489.485 451.31 490.985 452.263 492.937C453.215 494.866 453.692 497.164 453.692 499.831C453.692 502.522 453.203 504.843 452.227 506.796C451.275 508.748 449.917 510.249 448.155 511.296C446.393 512.344 444.298 512.868 441.869 512.868ZM441.869 509.868C444.393 509.868 446.369 509.01 447.798 507.296C449.227 505.558 449.941 503.069 449.941 499.831C449.941 496.592 449.227 494.128 447.798 492.437C446.369 490.723 444.393 489.866 441.869 489.866C439.345 489.866 437.368 490.723 435.94 492.437C434.511 494.152 433.797 496.616 433.797 499.831C433.797 503.045 434.511 505.522 435.94 507.26C437.368 508.998 439.345 509.868 441.869 509.868Z" fill="#ACACAC"/>
<path d="M460.798 512.582C460.469 512.582 460.203 512.316 460.203 511.987V487.746C460.203 487.418 460.469 487.151 460.798 487.151H462.693C462.88 487.151 463.055 487.238 463.168 487.386L478.217 507.221C478.355 507.403 478.282 507.665 478.07 507.75C477.844 507.84 477.598 507.674 477.598 507.43V487.746C477.598 487.418 477.864 487.151 478.193 487.151H480.467C480.796 487.151 481.062 487.418 481.062 487.746V511.987C481.062 512.316 480.796 512.582 480.467 512.582H478.537C478.35 512.582 478.174 512.495 478.062 512.346L463.063 492.521C462.933 492.35 462.996 492.102 463.191 492.013C463.414 491.911 463.668 492.073 463.668 492.318V511.987C463.668 512.316 463.401 512.582 463.072 512.582H460.798Z" fill="#ACACAC"/>
<path d="M496.742 512.868C495.433 512.868 494.195 512.761 493.028 512.546C491.861 512.308 490.777 511.951 489.777 511.475C488.924 511.069 488.148 510.593 487.451 510.048C487.24 509.882 487.177 509.592 487.291 509.349L488.068 507.686C488.23 507.34 488.671 507.234 488.983 507.455C490.073 508.229 491.171 508.807 492.278 509.189C493.611 509.641 495.111 509.868 496.778 509.868C498.683 509.868 500.159 509.51 501.207 508.796C502.255 508.058 502.779 507.046 502.779 505.76C502.779 504.974 502.529 504.331 502.029 503.831C501.529 503.331 500.814 502.926 499.886 502.617C498.981 502.307 497.909 502.01 496.671 501.724C495.337 501.438 494.111 501.117 492.992 500.76C491.873 500.379 490.908 499.914 490.099 499.367C489.289 498.819 488.658 498.14 488.206 497.331C487.777 496.521 487.563 495.533 487.563 494.366C487.563 492.913 487.956 491.616 488.742 490.473C489.527 489.33 490.623 488.449 492.028 487.83C493.456 487.187 495.135 486.865 497.064 486.865C498.254 486.865 499.397 486.984 500.493 487.222C501.588 487.461 502.6 487.818 503.529 488.294C504.317 488.678 505.029 489.14 505.663 489.678C505.863 489.849 505.914 490.134 505.798 490.369L504.975 492.037C504.803 492.385 504.35 492.477 504.041 492.242C503.081 491.508 502.089 490.954 501.064 490.58C499.826 490.104 498.504 489.866 497.1 489.866C495.266 489.866 493.825 490.247 492.778 491.009C491.73 491.771 491.206 492.83 491.206 494.187C491.206 495.021 491.432 495.699 491.885 496.223C492.337 496.723 492.992 497.14 493.849 497.473C494.73 497.807 495.778 498.116 496.992 498.402C498.35 498.712 499.6 499.057 500.743 499.438C501.886 499.795 502.886 500.236 503.743 500.76C504.6 501.26 505.267 501.903 505.743 502.688C506.22 503.45 506.458 504.403 506.458 505.546C506.458 507.022 506.065 508.308 505.279 509.403C504.493 510.499 503.374 511.356 501.922 511.975C500.469 512.57 498.743 512.868 496.742 512.868Z" fill="#ACACAC"/>
<defs>
<linearGradient id="paint0_linear_234_141" x1="232.583" y1="106.049" x2="122.304" y2="267.132" gradientUnits="userSpaceOnUse">
<stop stop-color="#004697"/>
<stop offset="1" stop-color="#078DEE"/>
</linearGradient>
<linearGradient id="paint1_linear_234_141" x1="188.201" y1="32.9538" x2="359.142" y2="285.99" gradientUnits="userSpaceOnUse">
<stop stop-color="#68CDF9"/>
<stop offset="1" stop-color="#0094FF"/>
</linearGradient>
</defs>
</svg>
