<svg width="60" height="100%" viewBox="0 0 185 163" fill="none" xmlns="http://www.w3.org/2000/svg"><path d="M91.9631 61.4039C87.1225 52.9756 82.3247 42.5339 71.6795 40.5312C70.5248 40.3136 69.3525 40.2025 68.1775 40.1992C65.0698 40.2231 62.0092 40.9619 59.2328 42.3585C56.4565 43.755 54.0388 45.7718 52.1669 48.2527L52.0706 48.3812C51.835 48.7025 51.6208 49.0345 51.4066 49.3665L51.4815 49.2594C51.3423 49.4629 51.2031 49.6664 51.0853 49.8805L47.1014 56.6703L23.1016 97.3661C35.6329 105.228 52.9033 104.68 65.515 97.3929C71.7814 93.7719 77.007 88.5947 80.6861 82.3622L85.5696 74.1053L92.4558 62.2928L91.9631 61.4039Z" fill="url(#paint0_linear_217_9454)"></path><path d="M111.047 10.7799C109.168 7.57182 106.484 4.91012 103.26 3.0584C100.036 1.20668 96.3847 0.229181 92.6669 0.222689C88.9491 0.216197 85.294 1.18094 82.0637 3.02139C78.8333 4.86184 76.1398 7.51415 74.2497 10.7157L69.0449 19.5296L63.2725 29.2965L51.4922 49.3232C53.3114 46.5273 55.7957 44.2263 58.7226 42.6265C61.6495 41.0266 64.9276 40.1777 68.2631 40.1559C69.4382 40.1592 70.6104 40.2703 71.7651 40.4879C82.3674 42.4905 87.2081 52.9322 92.0488 61.3606C94.4691 65.5801 96.9537 69.7567 99.4276 73.9548L102.287 78.7848L104.311 82.2118C107.448 87.5316 111.719 92.0942 116.82 95.5743C121.922 99.0544 127.729 101.366 133.826 102.346C143.207 103.912 153.804 102.292 161.896 97.2157L136.471 53.9978L111.047 10.7799Z" fill="url(#paint1_linear_217_9454)"></path><path d="M9.1608 158.628C8.16582 160.935 5.89442 162.429 3.38241 162.429H0.976562L16.0985 128.992C16.7615 127.525 18.2216 126.583 19.8307 126.583C21.4398 126.583 22.8999 127.525 23.5629 128.992L38.6848 162.429H36.3921C33.8738 162.429 31.598 160.927 30.6069 158.612L19.0503 131.618H20.8124L9.1608 158.628ZM8.12552 154.021L10.5924 148.987H28.8676L31.2338 154.021H8.12552Z" fill="#212121"></path><path d="M43.7792 162.429C42.8292 162.429 42.0591 161.659 42.0591 160.709V131.668C42.0591 128.193 44.8766 125.375 48.3522 125.375V161.59C48.3522 162.053 47.9765 162.429 47.5131 162.429H43.7792Z" fill="#212121"></path><path d="M66.7162 162.781C64.0647 162.781 61.7657 162.244 59.819 161.17C57.9059 160.096 56.4291 158.586 55.3887 156.639C54.3482 154.659 53.828 152.309 53.828 149.591C53.828 146.906 54.3482 144.573 55.3887 142.593C56.4291 140.579 57.9059 139.035 59.819 137.961C61.7657 136.887 64.0647 136.35 66.7162 136.35C69.3006 136.35 71.5493 136.887 73.4624 137.961C75.4091 139.035 76.9027 140.579 77.9431 142.593C79.0172 144.573 79.5542 146.906 79.5542 149.591C79.5542 152.309 79.0172 154.659 77.9431 156.639C76.9027 158.586 75.4091 160.096 73.4624 161.17C71.5493 162.244 69.3006 162.781 66.7162 162.781ZM66.7162 157.948C68.7972 157.948 70.3914 157.26 71.499 155.884C72.6401 154.474 73.2107 152.377 73.2107 149.591C73.2107 146.839 72.6401 144.775 71.499 143.398C70.3914 141.989 68.7972 141.284 66.7162 141.284C64.6018 141.284 62.9572 141.989 61.7825 143.398C60.6413 144.775 60.0707 146.839 60.0707 149.591C60.0707 152.377 60.6413 154.474 61.7825 155.884C62.9236 157.26 64.5682 157.948 66.7162 157.948Z" fill="#212121"></path><path d="M94.7827 162.429C93.1171 162.429 91.6108 161.439 90.9496 159.91L81.0637 137.055H83.4082C85.9765 137.055 88.2871 138.616 89.2461 140.998L95.6637 156.941H94.2541L100.808 140.96C101.777 138.598 104.077 137.055 106.631 137.055H108.653L98.6283 159.916C97.9589 161.443 96.4497 162.429 94.7827 162.429Z" fill="#212121"></path><path d="M121.398 162.781C119.183 162.781 117.219 162.261 115.507 161.22C113.796 160.146 112.47 158.636 111.53 156.689C110.624 154.709 110.171 152.393 110.171 149.742C110.171 147.057 110.641 144.724 111.581 142.744C112.52 140.73 113.829 139.169 115.507 138.062C117.219 136.921 119.183 136.35 121.398 136.35C123.546 136.35 125.409 136.887 126.986 137.961C128.597 139.002 129.688 140.462 130.258 142.341L129.654 142.694V137.844C129.654 137.38 130.03 137.005 130.493 137.005H135.008C135.471 137.005 135.847 137.38 135.847 137.844V161.59C135.847 162.053 135.471 162.429 135.008 162.429H130.493C130.03 162.429 129.654 162.053 129.654 161.59V156.689L130.258 156.891C129.688 158.77 128.597 160.23 126.986 161.271C125.409 162.278 123.546 162.781 121.398 162.781ZM123.109 157.948C125.19 157.948 126.801 157.226 127.943 155.783C129.084 154.34 129.654 152.293 129.654 149.641C129.654 146.923 129.084 144.858 127.943 143.449C126.801 142.006 125.19 141.284 123.109 141.284C120.995 141.284 119.35 142.022 118.176 143.499C117.001 144.976 116.414 147.074 116.414 149.759C116.414 152.377 117.001 154.39 118.176 155.834C119.35 157.243 120.995 157.948 123.109 157.948Z" fill="#212121"></path><path d="M140.368 141.737C139.905 141.737 139.529 141.361 139.529 140.898V137.844C139.529 137.38 139.905 137.005 140.368 137.005H156.613C157.076 137.005 157.452 137.38 157.452 137.844V140.898C157.452 141.361 157.076 141.737 156.613 141.737H140.368ZM156.922 157.325C157.191 157.263 157.452 157.463 157.452 157.739V161.582C157.452 161.938 157.227 162.259 156.884 162.357C155.77 162.676 154.665 162.781 153.374 162.781C150.521 162.781 148.306 161.976 146.728 160.365C145.184 158.754 144.412 156.438 144.412 153.417V134.991C144.412 131.515 147.23 128.698 150.706 128.698V153.115C150.706 154.256 150.89 155.162 151.259 155.834C151.628 156.471 152.115 156.924 152.719 157.193C154.066 157.76 155.531 157.645 156.922 157.325Z" fill="#212121"></path><path d="M183.337 159.038C183.479 159.378 183.385 159.773 183.089 159.992C181.973 160.818 180.642 161.48 179.095 161.976C177.35 162.513 175.571 162.781 173.759 162.781C171.007 162.781 168.624 162.261 166.61 161.22C164.63 160.18 163.102 158.67 162.028 156.689C160.954 154.709 160.417 152.36 160.417 149.641C160.417 147.023 160.938 144.724 161.978 142.744C163.018 140.73 164.462 139.169 166.308 138.062C168.154 136.921 170.285 136.35 172.701 136.35C175.051 136.35 177.065 136.87 178.743 137.911C180.421 138.918 181.713 140.378 182.619 142.291C183.689 144.469 183.973 146.823 184.021 149.205C184.03 149.668 183.653 150.044 183.19 150.044H165.955L166.006 146.671H180.304L178.592 148.383C178.625 145.932 178.139 144.07 177.132 142.794C176.158 141.519 174.732 140.881 172.853 140.881C170.839 140.881 169.278 141.603 168.17 143.046C167.063 144.456 166.509 146.486 166.509 149.138C166.509 152.158 167.13 154.39 168.372 155.834C169.614 157.243 171.493 157.948 174.01 157.948C175.387 157.948 176.729 157.73 178.038 157.294C179.211 156.883 180.306 156.319 181.325 155.602C181.55 155.443 181.867 155.528 181.973 155.781L183.337 159.038Z" fill="#212121"></path><defs><linearGradient id="paint0_linear_217_9454" x1="84.9485" y1="38.2715" x2="45.0559" y2="96.5415" gradientUnits="userSpaceOnUse"><stop stop-color="#004697"></stop><stop offset="1" stop-color="#078DEE"></stop></linearGradient><linearGradient id="paint1_linear_217_9454" x1="68.895" y1="11.8295" x2="130.731" y2="103.363" gradientUnits="userSpaceOnUse"><stop stop-color="#68CDF9"></stop><stop offset="1" stop-color="#0094FF"></stop></linearGradient></defs></svg>