<svg width="60" height="100%" viewBox="0 0 184 163" fill="none" xmlns="http://www.w3.org/2000/svg"><path d="M91.51 61.4C86.6694 52.9717 81.8715 42.53 71.2264 40.5273C70.0717 40.3097 68.8994 40.1986 67.7244 40.1953C64.6166 40.2192 61.5561 40.958 58.7797 42.3546C56.0033 43.7511 53.5857 45.7679 51.7138 48.2488L51.6174 48.3773C51.3818 48.6986 51.1676 49.0306 50.9535 49.3626L51.0284 49.2555C50.8892 49.459 50.75 49.6625 50.6322 49.8766L46.6482 56.6664L22.6484 97.3622C35.1798 105.224 52.4502 104.677 65.0619 97.389C71.3283 93.768 76.5539 88.5908 80.233 82.3583L85.1165 74.1013L92.0026 62.2889L91.51 61.4Z" fill="url(#paint0_linear_217_9493)"></path><path d="M110.594 10.776C108.715 7.56792 106.031 4.90621 102.807 3.05449C99.5832 1.20277 95.9316 0.225275 92.2138 0.218783C88.4959 0.21229 84.8409 1.17703 81.6106 3.01748C78.3802 4.85793 75.6867 7.51024 73.7966 10.7118L68.5918 19.5257L62.8194 29.2926L51.0391 49.3193C52.8583 46.5234 55.3426 44.2224 58.2695 42.6226C61.1964 41.0227 64.4745 40.1738 67.81 40.152C68.985 40.1553 70.1573 40.2664 71.312 40.484C81.9143 42.4866 86.755 52.9283 91.5956 61.3567C94.016 65.5762 96.5006 69.7528 98.9744 73.9509L101.834 78.7809L103.858 82.2079C106.994 87.5277 111.266 92.0903 116.367 95.5704C121.469 99.0505 127.276 101.362 133.373 102.342C142.754 103.908 153.351 102.288 161.442 97.2118L136.018 53.9939L110.594 10.776Z" fill="url(#paint1_linear_217_9493)"></path><path d="M8.70768 158.624C7.71269 160.931 5.44129 162.425 2.92928 162.425H0.523438L15.6453 128.988C16.3084 127.521 17.7684 126.579 19.3776 126.579C20.9867 126.579 22.4467 127.521 23.1098 128.988L38.2317 162.425H35.939C33.4207 162.425 31.1448 160.924 30.1537 158.608L18.5972 131.614H20.3593L8.70768 158.624ZM7.6724 154.017L10.1393 148.983H28.4145L30.7807 154.017H7.6724Z" fill="white"></path><path d="M43.3261 162.425C42.3761 162.425 41.606 161.655 41.606 160.705V131.664C41.606 128.189 44.4235 125.371 47.8991 125.371V161.586C47.8991 162.049 47.5234 162.425 47.06 162.425H43.3261Z" fill="white"></path><path d="M66.2631 162.777C63.6116 162.777 61.3125 162.24 59.3659 161.166C57.4528 160.092 55.976 158.582 54.9355 156.635C53.8951 154.655 53.3748 152.306 53.3748 149.587C53.3748 146.902 53.8951 144.569 54.9355 142.589C55.976 140.575 57.4528 139.031 59.3659 137.957C61.3125 136.883 63.6116 136.346 66.2631 136.346C68.8475 136.346 71.0962 136.883 73.0093 137.957C74.956 139.031 76.4495 140.575 77.49 142.589C78.564 144.569 79.101 146.902 79.101 149.587C79.101 152.306 78.564 154.655 77.49 156.635C76.4495 158.582 74.956 160.092 73.0093 161.166C71.0962 162.24 68.8475 162.777 66.2631 162.777ZM66.2631 157.944C68.344 157.944 69.9383 157.256 71.0459 155.88C72.187 154.47 72.7576 152.373 72.7576 149.587C72.7576 146.835 72.187 144.771 71.0459 143.395C69.9383 141.985 68.344 141.28 66.2631 141.28C64.1486 141.28 62.504 141.985 61.3293 143.395C60.1882 144.771 59.6176 146.835 59.6176 149.587C59.6176 152.373 60.1882 154.47 61.3293 155.88C62.4705 157.256 64.1151 157.944 66.2631 157.944Z" fill="white"></path><path d="M94.3296 162.425C92.664 162.425 91.1577 161.435 90.4965 159.907L80.6106 137.051H82.9551C85.5234 137.051 87.834 138.612 88.793 140.994L95.2106 156.937H93.8009L100.355 140.956C101.324 138.594 103.624 137.051 106.178 137.051H108.2L98.1752 159.912C97.5057 161.439 95.9966 162.425 94.3296 162.425Z" fill="white"></path><path d="M120.945 162.777C118.729 162.777 116.766 162.257 115.054 161.217C113.343 160.143 112.017 158.632 111.077 156.686C110.171 154.705 109.718 152.389 109.718 149.738C109.718 147.053 110.188 144.72 111.127 142.74C112.067 140.726 113.376 139.166 115.054 138.058C116.766 136.917 118.729 136.346 120.945 136.346C123.093 136.346 124.955 136.883 126.533 137.957C128.144 138.998 129.235 140.458 129.805 142.337L129.201 142.69V137.84C129.201 137.376 129.577 137.001 130.04 137.001H134.555C135.018 137.001 135.394 137.376 135.394 137.84V161.586C135.394 162.049 135.018 162.425 134.555 162.425H130.04C129.577 162.425 129.201 162.049 129.201 161.586V156.686L129.805 156.887C129.235 158.766 128.144 160.226 126.533 161.267C124.955 162.274 123.093 162.777 120.945 162.777ZM122.656 157.944C124.737 157.944 126.348 157.223 127.489 155.779C128.631 154.336 129.201 152.289 129.201 149.637C129.201 146.919 128.631 144.855 127.489 143.445C126.348 142.002 124.737 141.28 122.656 141.28C120.542 141.28 118.897 142.018 117.723 143.495C116.548 144.972 115.961 147.07 115.961 149.755C115.961 152.373 116.548 154.386 117.723 155.83C118.897 157.239 120.542 157.944 122.656 157.944Z" fill="white"></path><path d="M139.915 141.733C139.452 141.733 139.076 141.357 139.076 140.894V137.84C139.076 137.376 139.452 137.001 139.915 137.001H156.16C156.623 137.001 156.999 137.376 156.999 137.84V140.894C156.999 141.357 156.623 141.733 156.16 141.733H139.915ZM156.469 157.321C156.737 157.259 156.999 157.459 156.999 157.735V161.578C156.999 161.934 156.774 162.255 156.431 162.353C155.317 162.672 154.212 162.777 152.921 162.777C150.068 162.777 147.853 161.972 146.275 160.361C144.731 158.75 143.959 156.434 143.959 153.413V134.987C143.959 131.511 146.777 128.694 150.252 128.694V153.111C150.252 154.252 150.437 155.158 150.806 155.83C151.175 156.467 151.662 156.92 152.266 157.189C153.612 157.756 155.077 157.641 156.469 157.321Z" fill="white"></path><path d="M182.883 159.034C183.026 159.374 182.932 159.769 182.635 159.988C181.52 160.814 180.189 161.476 178.642 161.972C176.897 162.509 175.118 162.777 173.306 162.777C170.553 162.777 168.17 162.257 166.157 161.217C164.176 160.176 162.649 158.666 161.575 156.686C160.501 154.705 159.964 152.356 159.964 149.637C159.964 147.019 160.484 144.72 161.525 142.74C162.565 140.726 164.009 139.166 165.855 138.058C167.701 136.917 169.832 136.346 172.248 136.346C174.598 136.346 176.612 136.866 178.29 137.907C179.968 138.914 181.26 140.374 182.166 142.287C183.236 144.465 183.52 146.819 183.568 149.201C183.577 149.664 183.2 150.04 182.737 150.04H165.502L165.552 146.667H179.85L178.139 148.379C178.172 145.929 177.686 144.066 176.679 142.79C175.705 141.515 174.279 140.877 172.399 140.877C170.386 140.877 168.825 141.599 167.717 143.042C166.61 144.452 166.056 146.482 166.056 149.134C166.056 152.155 166.677 154.386 167.919 155.83C169.161 157.239 171.04 157.944 173.557 157.944C174.933 157.944 176.276 157.726 177.585 157.29C178.757 156.879 179.853 156.315 180.872 155.598C181.097 155.439 181.414 155.524 181.52 155.777L182.883 159.034Z" fill="white"></path><defs><linearGradient id="paint0_linear_217_9493" x1="84.4953" y1="38.2676" x2="44.6027" y2="96.5376" gradientUnits="userSpaceOnUse"><stop stop-color="#004697"></stop><stop offset="1" stop-color="#078DEE"></stop></linearGradient><linearGradient id="paint1_linear_217_9493" x1="68.4419" y1="11.8256" x2="130.278" y2="103.359" gradientUnits="userSpaceOnUse"><stop stop-color="#68CDF9"></stop><stop offset="1" stop-color="#0094FF"></stop></linearGradient></defs></svg>