<?xml version="1.0" encoding="UTF-8"?>
<!DOCTYPE svg PUBLIC "-//W3C//DTD SVG 1.1//EN" "http://www.w3.org/Graphics/SVG/1.1/DTD/svg11.dtd">
<!-- Creator: CorelDRAW 2018 (64-Bit) -->
<svg xmlns="http://www.w3.org/2000/svg" xml:space="preserve" width="163.112mm" height="131.555mm" version="1.1" style="shape-rendering:geometricPrecision; text-rendering:geometricPrecision; image-rendering:optimizeQuality; fill-rule:evenodd; clip-rule:evenodd"
viewBox="0 0 16311.1 13155.49"
 xmlns:xlink="http://www.w3.org/1999/xlink">
 <defs>
  <style type="text/css">
   <![CDATA[
    .fil0 {fill:#EF7F1A}
    .fil2 {fill:#2B2A29;fill-rule:nonzero}
    .fil1 {fill:#2B2A29;fill-rule:nonzero}
   ]]>
  </style>
 </defs>
 <g id="Layer_x0020_1">
  <metadata id="CorelCorpID_0Corel-Layer"/>
  <g id="_2418873020944">
   <rect class="fil0" x="-0.01" y="-0" width="16311.1" height="13155.49"/>
   <g>
    <path class="fil1" d="M3118.64 6647.42l0 0.27c-0.87,205.5 87.04,411.87 266.53,591.36 22.79,22.79 46,44.06 69.59,63.9l3524.44 3524.45 0 -2354.68 -1825.14 -1825.14 1825.14 -1825.17 0 -2354.68 -3524.44 3524.45c-23.59,19.83 -46.8,41.11 -69.59,63.9 -179.49,179.49 -267.44,385.86 -266.53,591.36zm6213.27 4179.97l3524.44 -3524.45c23.59,-19.84 46.79,-41.11 69.59,-63.9 179.49,-179.49 267.39,-385.86 266.52,-591.36l0 -0.27c0.91,-205.5 -87.03,-411.91 -266.52,-591.36 -22.8,-22.79 -46,-44.07 -69.59,-63.9l-3524.44 -3524.45 0 2354.68 1825.17 1825.17 -1825.17 1825.14 0 2354.68z"/>
    <path class="fil2" d="M8896.72 10509.18c0,395.48 -162.46,741.09 -741.13,741.09 -578.72,0 -741.13,-345.16 -741.13,-741.09l0 -5822.25c0,-395.93 162.41,-741.13 741.13,-741.13 578.67,0 741.13,345.42 741.13,741.13l0 5822.25zm30.43 -7832.37c0,426.37 -345.16,771.57 -771.56,771.57 -426.41,0 -771.61,-345.2 -771.61,-771.57 0,-426.41 345.2,-771.57 771.61,-771.57 426.4,0 771.56,345.16 771.56,771.57z"/>
   </g>
  </g>
 </g>
</svg>
